<svg width="80" height="80" viewBox="0 0 80 80" fill="none" xmlns="http://www.w3.org/2000/svg">
<g clip-path="url(#clip0)">
<path d="M40 80C32.0888 80 24.3552 77.654 17.7772 73.2588C11.1992 68.8635 6.07234 62.6163 3.04484 55.3073C0.0173315 47.9983 -0.774802 39.9556 0.768607 32.1963C2.31202 24.4371 6.12165 17.3098 11.7157 11.7157C17.3098 6.12159 24.4372 2.31195 32.1964 0.768546C39.9556 -0.774863 47.9983 0.0172704 55.3074 3.04478C62.6164 6.07228 68.8635 11.1992 73.2588 17.7771C77.6541 24.3551 80 32.0887 80 40C79.9883 50.605 75.7703 60.7724 68.2713 68.2713C60.7724 75.7702 50.6051 79.9882 40 80ZM40 4.70733C33.0225 4.70921 26.2022 6.77988 20.4013 10.6576C14.6005 14.5352 10.0796 20.0458 7.41032 26.4926C4.741 32.9393 4.04308 40.0328 5.40479 46.8762C6.7665 53.7196 10.1267 60.0056 15.0606 64.9394C19.9944 69.8733 26.2804 73.2335 33.1238 74.5952C39.9672 75.9569 47.0606 75.259 53.5074 72.5897C59.9542 69.9203 65.4647 65.3995 69.3424 59.5987C73.2201 53.7978 75.2908 46.9775 75.2926 40C75.2826 30.6437 71.5607 21.6737 64.944 15.0588C58.3273 8.44379 49.3563 4.72436 40 4.71682V4.70733Z" fill="#671A10"/>
<path d="M34.3246 59.9905V7.41855L46.9472 18.5479V70.2879H41.6324L30.0063 59.9905H34.3246Z" fill="#671A10"/>
</g>
<defs>
<clipPath id="clip0">
<rect width="80" height="80" fill="white"/>
</clipPath>
</defs>
</svg>
