<svg width="336" height="53" viewBox="0 0 336 53" fill="none" xmlns="http://www.w3.org/2000/svg">
<path d="M3.58842 43.7511V0.0690002L14.0776 9.31607V52.3311H9.66112L0 43.7511H3.58842Z" fill="#671A10"/>
<path d="M36.9884 52.3311H33.676L23.8079 43.9581V43.7511H27.6033V8.14295H27.8103L37.0114 19.8053L36.9884 52.3311ZM54.9305 23.4627V36.1602H54.7235L25.5331 0H25.7401L44.1422 10.2132L54.9305 23.4627ZM67.973 52.3311H67.766L58.5649 44.7402V0H58.7719L67.973 8.69501V52.3311Z" fill="#671A10"/>
<path d="M81.2223 43.7511V23.0487H94.4489V19.4603L103.029 28.1783V31.9047H90.6074V52.3311H86.1909L76.9438 43.7511H81.2223ZM81.2223 19.8743V3.19737H96.9562V0L105.237 8.69501V12.1454H90.6074V19.8743H81.2223Z" fill="#671A10"/>
<path d="M117.797 52.3311L108.826 43.7741H128.378V40.3237L136.636 48.8807V52.3311H117.797ZM112.69 19.2532V3.15137H127.642V0L135.923 8.76402V11.7314H122.075V19.2532H112.69ZM112.69 40.6457V22.5656H127.251V19.2532L135.52 27.5342V30.8466H122.064V40.6227L112.69 40.6457Z" fill="#671A10"/>
<path d="M155.337 36.7123V52.3311H151.956L142.64 43.7741H146.366V23.0027L155.337 36.7123ZM146.366 3.17438H151.749C156.349 3.17438 159.892 5.03759 160.582 11.3173H155.337V19.9433C153.391 20.5556 151.362 20.8583 149.322 20.8404C148.3 20.8979 147.281 20.7003 146.355 20.2654L146.366 3.17438ZM151.197 24.1528V23.9458C158.581 23.9458 164.308 20.5644 164.308 12.6285C164.308 8.02794 162.169 6.00371 161.433 4.57754H161.64C165.021 6.64778 171.646 12.6285 171.646 19.9663C171.646 25.487 168.61 29.5584 163.434 31.4217L177.144 52.3311H170.519L160.248 43.7511H163.699L151.197 24.1528Z" fill="#671A10"/>
<path d="M186.805 52.3311L177.834 43.7741H197.386V40.3237L205.644 48.8807V52.3311H186.805ZM181.698 19.2532V3.15137H196.65V0L204.931 8.76402V11.7314H191.083V19.2532H181.698ZM181.698 40.6457V22.5656H196.259V19.2532L204.528 27.5342V30.8466H191.072V40.6227L181.698 40.6457Z" fill="#671A10"/>
<path d="M224.828 52.3311H221.516L211.647 43.9581V43.7511H215.454V8.14295H215.661L224.862 19.8053L224.828 52.3311ZM242.77 23.4627V36.1602H242.563L213.373 0H213.58L231.982 10.2132L242.77 23.4627ZM255.813 52.3311H255.606L246.405 44.7402V0H246.612L255.813 8.69501V52.3311Z" fill="#671A10"/>
<path d="M302.865 9.38509L301.347 12.1454C298.45 10.6411 295.225 9.8822 291.961 9.93716C284.647 9.93716 274.088 16.6309 274.088 28.3393C274.088 33.4459 274.985 36.3442 277.056 39.3116H276.849C269.752 36.8043 265.267 30.0185 265.267 22.3586C265.267 11.3863 273.962 2.23126 285.072 2.23126C287.763 2.23126 290.248 3.05936 292.801 3.88746L293.836 1.12714H293.974L302.865 9.38509ZM303.831 45.2693L305.073 49.2027C302.037 50.6519 298.103 52.3081 292.859 52.3081C284.44 52.3081 276.757 45.4073 273.398 41.7499V41.5428C276.693 43.7301 280.566 44.8835 284.52 44.8552C288.826 44.9267 293.071 43.8297 296.804 41.6808L296.182 38.2304H296.32L303.831 45.2693Z" fill="#671A10"/>
<path d="M317.161 52.3311L308.19 43.7741H327.742V40.3237L336 48.8807V52.3311H317.161ZM312.066 19.2532V3.15137H327.017V0L335.298 8.76402V11.7314H321.439V19.2532H312.066ZM312.066 40.6457V22.5656H326.615V19.2532L334.896 27.5342V30.8466H321.439V40.6227L312.066 40.6457Z" fill="#671A10"/>
</svg>
